<mxfile host="Electron" modified="2024-06-04T18:03:19.781Z" agent="Mozilla/5.0 (X11; Linux x86_64) AppleWebKit/537.36 (KHTML, like Gecko) draw.io/24.4.8 Chrome/124.0.6367.207 Electron/30.0.6 Safari/537.36" etag="hwr3mC0HN9jeVLcvn00V" version="24.4.8" type="device">
  <diagram name="Page-1" id="c5X7hhBgmhvkAeY6OyJd">
    <mxGraphModel dx="636" dy="390" grid="1" gridSize="10" guides="1" tooltips="1" connect="1" arrows="1" fold="1" page="1" pageScale="1" pageWidth="850" pageHeight="1100" math="0" shadow="0">
      <root>
        <mxCell id="0" />
        <mxCell id="1" parent="0" />
        <mxCell id="uJ7OIQPrnL1CbaQ1osgT-1" value="" style="rounded=0;whiteSpace=wrap;html=1;" vertex="1" parent="1">
          <mxGeometry x="240" y="200" width="310" height="200" as="geometry" />
        </mxCell>
        <mxCell id="uJ7OIQPrnL1CbaQ1osgT-7" value="" style="rounded=0;whiteSpace=wrap;html=1;strokeColor=#00fa11;" vertex="1" parent="1">
          <mxGeometry x="440" y="270" width="40" height="80" as="geometry" />
        </mxCell>
        <mxCell id="uJ7OIQPrnL1CbaQ1osgT-8" value="" style="shape=umlActor;verticalLabelPosition=bottom;verticalAlign=top;html=1;outlineConnect=0;" vertex="1" parent="1">
          <mxGeometry x="445" y="280" width="30" height="60" as="geometry" />
        </mxCell>
        <mxCell id="uJ7OIQPrnL1CbaQ1osgT-27" value="" style="endArrow=none;html=1;rounded=0;fillColor=#f8cecc;strokeColor=#b85450;" edge="1" parent="1">
          <mxGeometry width="50" height="50" relative="1" as="geometry">
            <mxPoint x="440" y="400" as="sourcePoint" />
            <mxPoint x="440" y="200" as="targetPoint" />
          </mxGeometry>
        </mxCell>
        <mxCell id="uJ7OIQPrnL1CbaQ1osgT-29" value="" style="endArrow=none;html=1;rounded=0;fillColor=#f8cecc;strokeColor=#b85450;" edge="1" parent="1">
          <mxGeometry width="50" height="50" relative="1" as="geometry">
            <mxPoint x="480" y="400" as="sourcePoint" />
            <mxPoint x="480" y="200" as="targetPoint" />
          </mxGeometry>
        </mxCell>
        <mxCell id="uJ7OIQPrnL1CbaQ1osgT-31" value="" style="endArrow=none;html=1;rounded=0;fillColor=#e1d5e7;strokeColor=#9673a6;" edge="1" parent="1">
          <mxGeometry width="50" height="50" relative="1" as="geometry">
            <mxPoint x="240" y="270" as="sourcePoint" />
            <mxPoint x="550" y="270" as="targetPoint" />
          </mxGeometry>
        </mxCell>
        <mxCell id="uJ7OIQPrnL1CbaQ1osgT-32" value="" style="endArrow=none;html=1;rounded=0;fillColor=#e1d5e7;strokeColor=#9673a6;" edge="1" parent="1">
          <mxGeometry width="50" height="50" relative="1" as="geometry">
            <mxPoint x="240" y="350" as="sourcePoint" />
            <mxPoint x="550" y="351" as="targetPoint" />
          </mxGeometry>
        </mxCell>
        <mxCell id="uJ7OIQPrnL1CbaQ1osgT-33" value="x1" style="text;html=1;align=center;verticalAlign=middle;whiteSpace=wrap;rounded=0;" vertex="1" parent="1">
          <mxGeometry x="410" y="400" width="60" height="30" as="geometry" />
        </mxCell>
        <mxCell id="uJ7OIQPrnL1CbaQ1osgT-34" value="x2" style="text;html=1;align=center;verticalAlign=middle;whiteSpace=wrap;rounded=0;" vertex="1" parent="1">
          <mxGeometry x="450" y="400" width="60" height="30" as="geometry" />
        </mxCell>
        <mxCell id="uJ7OIQPrnL1CbaQ1osgT-35" value="y1" style="text;html=1;align=center;verticalAlign=middle;whiteSpace=wrap;rounded=0;" vertex="1" parent="1">
          <mxGeometry x="540" y="250" width="60" height="30" as="geometry" />
        </mxCell>
        <mxCell id="uJ7OIQPrnL1CbaQ1osgT-36" value="y2" style="text;html=1;align=center;verticalAlign=middle;whiteSpace=wrap;rounded=0;" vertex="1" parent="1">
          <mxGeometry x="540" y="340" width="60" height="30" as="geometry" />
        </mxCell>
      </root>
    </mxGraphModel>
  </diagram>
</mxfile>
